<mxfile host="Electron" agent="Mozilla/5.0 (Windows NT 10.0; Win64; x64) AppleWebKit/537.36 (KHTML, like Gecko) draw.io/26.1.1 Chrome/132.0.6834.210 Electron/34.3.3 Safari/537.36" version="26.1.1">
  <diagram name="Página-1" id="J0ObGEsTMUua0Om10Nsk">
    <mxGraphModel dx="472" dy="835" grid="1" gridSize="10" guides="1" tooltips="1" connect="1" arrows="1" fold="1" page="1" pageScale="1" pageWidth="827" pageHeight="1169" background="#ffffff" math="0" shadow="0">
      <root>
        <mxCell id="0" />
        <mxCell id="1" parent="0" />
        <mxCell id="HEuBwpfhYMhXISsQT04I-6" style="edgeStyle=orthogonalEdgeStyle;rounded=0;orthogonalLoop=1;jettySize=auto;html=1;endArrow=none;startFill=0;" parent="1" edge="1">
          <mxGeometry relative="1" as="geometry">
            <mxPoint x="610" y="240" as="targetPoint" />
            <mxPoint x="610.0000000000001" y="200" as="sourcePoint" />
          </mxGeometry>
        </mxCell>
        <mxCell id="HEuBwpfhYMhXISsQT04I-2" value="Equipe esportiva" style="rounded=0;whiteSpace=wrap;html=1;" parent="1" vertex="1">
          <mxGeometry x="520" y="140" width="120" height="60" as="geometry" />
        </mxCell>
        <mxCell id="HEuBwpfhYMhXISsQT04I-4" value="Aluno" style="rounded=0;whiteSpace=wrap;html=1;" parent="1" vertex="1">
          <mxGeometry x="310" y="350" width="120" height="60" as="geometry" />
        </mxCell>
        <mxCell id="HEuBwpfhYMhXISsQT04I-5" value="Funcionario" style="rounded=0;whiteSpace=wrap;html=1;" parent="1" vertex="1">
          <mxGeometry x="707" y="339.41" width="120" height="60" as="geometry" />
        </mxCell>
        <mxCell id="HEuBwpfhYMhXISsQT04I-7" value="" style="endArrow=oval;html=1;rounded=0;endFill=1;endSize=3;" parent="1" edge="1">
          <mxGeometry width="50" height="50" relative="1" as="geometry">
            <mxPoint x="610" y="220" as="sourcePoint" />
            <mxPoint x="650" y="220" as="targetPoint" />
          </mxGeometry>
        </mxCell>
        <mxCell id="HEuBwpfhYMhXISsQT04I-9" value="Código" style="edgeLabel;html=1;align=center;verticalAlign=middle;resizable=0;points=[];" parent="HEuBwpfhYMhXISsQT04I-7" vertex="1" connectable="0">
          <mxGeometry x="0.4714" y="1" relative="1" as="geometry">
            <mxPoint x="30" as="offset" />
          </mxGeometry>
        </mxCell>
        <mxCell id="HEuBwpfhYMhXISsQT04I-8" value="" style="endArrow=oval;html=1;rounded=0;endFill=0;endSize=3;" parent="1" edge="1">
          <mxGeometry width="50" height="50" relative="1" as="geometry">
            <mxPoint x="610" y="230" as="sourcePoint" />
            <mxPoint x="650" y="230" as="targetPoint" />
          </mxGeometry>
        </mxCell>
        <mxCell id="HEuBwpfhYMhXISsQT04I-10" value="Tipo" style="edgeLabel;html=1;align=center;verticalAlign=middle;resizable=0;points=[];labelBackgroundColor=none;" parent="HEuBwpfhYMhXISsQT04I-8" vertex="1" connectable="0">
          <mxGeometry x="0.3286" y="-1" relative="1" as="geometry">
            <mxPoint x="24" as="offset" />
          </mxGeometry>
        </mxCell>
        <mxCell id="HEuBwpfhYMhXISsQT04I-21" value="" style="endArrow=none;html=1;rounded=0;entryX=0.443;entryY=0.974;entryDx=0;entryDy=0;entryPerimeter=0;exitX=0.86;exitY=0.458;exitDx=0;exitDy=0;exitPerimeter=0;" parent="1" source="HEuBwpfhYMhXISsQT04I-23" edge="1">
          <mxGeometry width="50" height="50" relative="1" as="geometry">
            <mxPoint x="573" y="270" as="sourcePoint" />
            <mxPoint x="573.16" y="200" as="targetPoint" />
          </mxGeometry>
        </mxCell>
        <mxCell id="HEuBwpfhYMhXISsQT04I-22" value="" style="endArrow=none;html=1;rounded=0;entryX=0.473;entryY=0.99;entryDx=0;entryDy=0;exitX=0.894;exitY=0.557;exitDx=0;exitDy=0;exitPerimeter=0;entryPerimeter=0;" parent="1" source="HEuBwpfhYMhXISsQT04I-23" target="HEuBwpfhYMhXISsQT04I-2" edge="1">
          <mxGeometry width="50" height="50" relative="1" as="geometry">
            <mxPoint x="580" y="270" as="sourcePoint" />
            <mxPoint x="580" y="210" as="targetPoint" />
            <Array as="points">
              <mxPoint x="577" y="240" />
            </Array>
          </mxGeometry>
        </mxCell>
        <mxCell id="HEuBwpfhYMhXISsQT04I-24" style="edgeStyle=orthogonalEdgeStyle;rounded=0;orthogonalLoop=1;jettySize=auto;html=1;endArrow=none;startFill=0;" parent="1" source="HEuBwpfhYMhXISsQT04I-23" target="HEuBwpfhYMhXISsQT04I-4" edge="1">
          <mxGeometry relative="1" as="geometry" />
        </mxCell>
        <mxCell id="HEuBwpfhYMhXISsQT04I-25" style="edgeStyle=orthogonalEdgeStyle;rounded=0;orthogonalLoop=1;jettySize=auto;html=1;entryX=0.5;entryY=0;entryDx=0;entryDy=0;endArrow=none;startFill=0;" parent="1" source="HEuBwpfhYMhXISsQT04I-23" target="HEuBwpfhYMhXISsQT04I-5" edge="1">
          <mxGeometry relative="1" as="geometry" />
        </mxCell>
        <mxCell id="HEuBwpfhYMhXISsQT04I-23" value="" style="triangle;whiteSpace=wrap;html=1;rotation=-90;fillColor=#000000;" parent="1" vertex="1">
          <mxGeometry x="565" y="290" width="20" height="30" as="geometry" />
        </mxCell>
        <mxCell id="HEuBwpfhYMhXISsQT04I-29" style="edgeStyle=orthogonalEdgeStyle;rounded=0;orthogonalLoop=1;jettySize=auto;html=1;endArrow=none;startFill=0;" parent="1" edge="1">
          <mxGeometry relative="1" as="geometry">
            <mxPoint x="780" y="420" as="targetPoint" />
            <mxPoint x="780.0000000000001" y="400" as="sourcePoint" />
          </mxGeometry>
        </mxCell>
        <mxCell id="HEuBwpfhYMhXISsQT04I-30" value="" style="endArrow=oval;html=1;rounded=0;endFill=1;endSize=3;" parent="1" edge="1">
          <mxGeometry width="50" height="50" relative="1" as="geometry">
            <mxPoint x="780" y="409.67" as="sourcePoint" />
            <mxPoint x="820" y="409.67" as="targetPoint" />
          </mxGeometry>
        </mxCell>
        <mxCell id="HEuBwpfhYMhXISsQT04I-31" value="N_funcional" style="edgeLabel;html=1;align=center;verticalAlign=middle;resizable=0;points=[];labelBackgroundColor=none;" parent="HEuBwpfhYMhXISsQT04I-30" vertex="1" connectable="0">
          <mxGeometry x="0.3286" y="-1" relative="1" as="geometry">
            <mxPoint x="43" y="-1" as="offset" />
          </mxGeometry>
        </mxCell>
        <mxCell id="HEuBwpfhYMhXISsQT04I-95" style="edgeStyle=orthogonalEdgeStyle;rounded=0;orthogonalLoop=1;jettySize=auto;html=1;endArrow=none;startFill=0;" parent="1" edge="1">
          <mxGeometry relative="1" as="geometry">
            <mxPoint x="390" y="450" as="targetPoint" />
            <mxPoint x="390.0000000000001" y="410" as="sourcePoint" />
          </mxGeometry>
        </mxCell>
        <mxCell id="HEuBwpfhYMhXISsQT04I-96" value="" style="endArrow=oval;html=1;rounded=0;endFill=1;endSize=3;" parent="1" edge="1">
          <mxGeometry width="50" height="50" relative="1" as="geometry">
            <mxPoint x="390" y="430" as="sourcePoint" />
            <mxPoint x="430" y="430" as="targetPoint" />
          </mxGeometry>
        </mxCell>
        <mxCell id="HEuBwpfhYMhXISsQT04I-102" value="&lt;span style=&quot;&quot;&gt;N_matricula&lt;/span&gt;" style="edgeLabel;html=1;align=center;verticalAlign=middle;resizable=0;points=[];labelBackgroundColor=none;" parent="HEuBwpfhYMhXISsQT04I-96" vertex="1" connectable="0">
          <mxGeometry x="0.3395" relative="1" as="geometry">
            <mxPoint x="45" as="offset" />
          </mxGeometry>
        </mxCell>
        <mxCell id="HEuBwpfhYMhXISsQT04I-98" value="" style="endArrow=oval;html=1;rounded=0;endFill=0;endSize=3;" parent="1" edge="1">
          <mxGeometry width="50" height="50" relative="1" as="geometry">
            <mxPoint x="390" y="440" as="sourcePoint" />
            <mxPoint x="430" y="440" as="targetPoint" />
          </mxGeometry>
        </mxCell>
        <mxCell id="HEuBwpfhYMhXISsQT04I-99" value="Idade" style="edgeLabel;html=1;align=center;verticalAlign=middle;resizable=0;points=[];labelBackgroundColor=none;" parent="HEuBwpfhYMhXISsQT04I-98" vertex="1" connectable="0">
          <mxGeometry x="0.3286" y="-1" relative="1" as="geometry">
            <mxPoint x="30" y="-1" as="offset" />
          </mxGeometry>
        </mxCell>
        <mxCell id="HEuBwpfhYMhXISsQT04I-103" value="" style="endArrow=oval;html=1;rounded=0;endFill=0;endSize=3;" parent="1" edge="1">
          <mxGeometry width="50" height="50" relative="1" as="geometry">
            <mxPoint x="780" y="419.41" as="sourcePoint" />
            <mxPoint x="820" y="419.41" as="targetPoint" />
          </mxGeometry>
        </mxCell>
        <mxCell id="HEuBwpfhYMhXISsQT04I-104" value="Salário" style="edgeLabel;html=1;align=center;verticalAlign=middle;resizable=0;points=[];labelBackgroundColor=none;" parent="HEuBwpfhYMhXISsQT04I-103" vertex="1" connectable="0">
          <mxGeometry x="0.3286" y="-1" relative="1" as="geometry">
            <mxPoint x="33" y="-1" as="offset" />
          </mxGeometry>
        </mxCell>
        <mxCell id="HEuBwpfhYMhXISsQT04I-171" style="edgeStyle=orthogonalEdgeStyle;rounded=0;orthogonalLoop=1;jettySize=auto;html=1;entryX=0;entryY=0.5;entryDx=0;entryDy=0;endArrow=none;startFill=0;" parent="1" source="HEuBwpfhYMhXISsQT04I-150" target="HEuBwpfhYMhXISsQT04I-2" edge="1">
          <mxGeometry relative="1" as="geometry" />
        </mxCell>
        <mxCell id="HEuBwpfhYMhXISsQT04I-150" value="Compor" style="rhombus;whiteSpace=wrap;html=1;" parent="1" vertex="1">
          <mxGeometry x="360" y="130" width="80" height="80" as="geometry" />
        </mxCell>
        <mxCell id="HEuBwpfhYMhXISsQT04I-170" style="edgeStyle=orthogonalEdgeStyle;rounded=0;orthogonalLoop=1;jettySize=auto;html=1;entryX=0;entryY=0.5;entryDx=0;entryDy=0;endArrow=none;startFill=0;" parent="1" source="HEuBwpfhYMhXISsQT04I-151" target="HEuBwpfhYMhXISsQT04I-150" edge="1">
          <mxGeometry relative="1" as="geometry" />
        </mxCell>
        <mxCell id="HEuBwpfhYMhXISsQT04I-151" value="Atleta" style="rounded=0;whiteSpace=wrap;html=1;" parent="1" vertex="1">
          <mxGeometry x="110" y="140" width="120" height="60" as="geometry" />
        </mxCell>
        <mxCell id="HEuBwpfhYMhXISsQT04I-159" style="edgeStyle=orthogonalEdgeStyle;rounded=0;orthogonalLoop=1;jettySize=auto;html=1;endArrow=none;startFill=0;" parent="1" edge="1">
          <mxGeometry relative="1" as="geometry">
            <mxPoint x="180" y="260" as="targetPoint" />
            <mxPoint x="180.0000000000001" y="200" as="sourcePoint" />
          </mxGeometry>
        </mxCell>
        <mxCell id="HEuBwpfhYMhXISsQT04I-160" value="" style="endArrow=oval;html=1;rounded=0;endFill=1;endSize=3;" parent="1" edge="1">
          <mxGeometry width="50" height="50" relative="1" as="geometry">
            <mxPoint x="180" y="220" as="sourcePoint" />
            <mxPoint x="220" y="220" as="targetPoint" />
          </mxGeometry>
        </mxCell>
        <mxCell id="HEuBwpfhYMhXISsQT04I-161" value="Código" style="edgeLabel;html=1;align=center;verticalAlign=middle;resizable=0;points=[];" parent="HEuBwpfhYMhXISsQT04I-160" vertex="1" connectable="0">
          <mxGeometry x="0.4714" y="1" relative="1" as="geometry">
            <mxPoint x="30" as="offset" />
          </mxGeometry>
        </mxCell>
        <mxCell id="HEuBwpfhYMhXISsQT04I-162" value="" style="endArrow=oval;html=1;rounded=0;endFill=0;endSize=3;" parent="1" edge="1">
          <mxGeometry width="50" height="50" relative="1" as="geometry">
            <mxPoint x="180" y="230" as="sourcePoint" />
            <mxPoint x="220" y="230" as="targetPoint" />
          </mxGeometry>
        </mxCell>
        <mxCell id="HEuBwpfhYMhXISsQT04I-163" value="nome" style="edgeLabel;html=1;align=center;verticalAlign=middle;resizable=0;points=[];labelBackgroundColor=none;" parent="HEuBwpfhYMhXISsQT04I-162" vertex="1" connectable="0">
          <mxGeometry x="0.3286" y="-1" relative="1" as="geometry">
            <mxPoint x="33" as="offset" />
          </mxGeometry>
        </mxCell>
        <mxCell id="HEuBwpfhYMhXISsQT04I-164" value="" style="endArrow=oval;html=1;rounded=0;endFill=0;endSize=3;" parent="1" edge="1">
          <mxGeometry width="50" height="50" relative="1" as="geometry">
            <mxPoint x="180" y="240" as="sourcePoint" />
            <mxPoint x="220" y="240" as="targetPoint" />
          </mxGeometry>
        </mxCell>
        <mxCell id="HEuBwpfhYMhXISsQT04I-165" value="Modalidade" style="edgeLabel;html=1;align=center;verticalAlign=middle;resizable=0;points=[];labelBackgroundColor=none;" parent="HEuBwpfhYMhXISsQT04I-164" vertex="1" connectable="0">
          <mxGeometry x="0.3286" y="-1" relative="1" as="geometry">
            <mxPoint x="43" as="offset" />
          </mxGeometry>
        </mxCell>
        <mxCell id="HEuBwpfhYMhXISsQT04I-166" value="" style="endArrow=oval;html=1;rounded=0;endFill=0;endSize=3;" parent="1" edge="1">
          <mxGeometry width="50" height="50" relative="1" as="geometry">
            <mxPoint x="180" y="250" as="sourcePoint" />
            <mxPoint x="220" y="250" as="targetPoint" />
          </mxGeometry>
        </mxCell>
        <mxCell id="HEuBwpfhYMhXISsQT04I-167" value="Altura" style="edgeLabel;html=1;align=center;verticalAlign=middle;resizable=0;points=[];labelBackgroundColor=none;" parent="HEuBwpfhYMhXISsQT04I-166" vertex="1" connectable="0">
          <mxGeometry x="0.3286" y="-1" relative="1" as="geometry">
            <mxPoint x="33" as="offset" />
          </mxGeometry>
        </mxCell>
        <mxCell id="HEuBwpfhYMhXISsQT04I-168" value="" style="endArrow=oval;html=1;rounded=0;endFill=0;endSize=3;" parent="1" edge="1">
          <mxGeometry width="50" height="50" relative="1" as="geometry">
            <mxPoint x="180" y="260" as="sourcePoint" />
            <mxPoint x="220" y="260" as="targetPoint" />
          </mxGeometry>
        </mxCell>
        <mxCell id="HEuBwpfhYMhXISsQT04I-169" value="Peso" style="edgeLabel;html=1;align=center;verticalAlign=middle;resizable=0;points=[];labelBackgroundColor=none;" parent="HEuBwpfhYMhXISsQT04I-168" vertex="1" connectable="0">
          <mxGeometry x="0.3286" y="-1" relative="1" as="geometry">
            <mxPoint x="33" as="offset" />
          </mxGeometry>
        </mxCell>
        <mxCell id="HEuBwpfhYMhXISsQT04I-172" value="1" style="text;html=1;align=center;verticalAlign=middle;resizable=0;points=[];autosize=1;strokeColor=none;fillColor=none;" parent="1" vertex="1">
          <mxGeometry x="230" y="140" width="30" height="30" as="geometry" />
        </mxCell>
        <mxCell id="HEuBwpfhYMhXISsQT04I-173" value="1" style="text;html=1;align=center;verticalAlign=middle;resizable=0;points=[];autosize=1;strokeColor=none;fillColor=none;" parent="1" vertex="1">
          <mxGeometry x="490" y="140" width="30" height="30" as="geometry" />
        </mxCell>
      </root>
    </mxGraphModel>
  </diagram>
</mxfile>
